<svg id="visual" viewBox="0 0 960 540" width="960" height="540" xmlns="http://www.w3.org/2000/svg" xmlns:xlink="http://www.w3.org/1999/xlink" version="1.1"><g stroke-width="1" stroke-linejoin="bevel"><path d="M466 295L469 260L447 264Z" fill="#636363" stroke="#636363"></path><path d="M466 295L516 278L469 260Z" fill="#3b3b3b" stroke="#3b3b3b"></path><path d="M447 264L408 296L466 295Z" fill="#555555" stroke="#555555"></path><path d="M394 224L400 260L447 264Z" fill="#171717" stroke="#171717"></path><path d="M447 264L400 260L408 296Z" fill="#2e2e2e" stroke="#2e2e2e"></path><path d="M408 296L451 344L466 295Z" fill="#555555" stroke="#555555"></path><path d="M466 295L512 354L516 278Z" fill="#8e8e8e" stroke="#8e8e8e"></path><path d="M527 224L486 214L469 260Z" fill="#484848" stroke="#484848"></path><path d="M469 260L486 214L447 264Z" fill="#9d9d9d" stroke="#9d9d9d"></path><path d="M451 344L488 356L466 295Z" fill="#2e2e2e" stroke="#2e2e2e"></path><path d="M516 278L527 224L469 260Z" fill="#171717" stroke="#171717"></path><path d="M394 224L380 250L400 260Z" fill="#222222" stroke="#222222"></path><path d="M400 260L380 250L408 296Z" fill="#222222" stroke="#222222"></path><path d="M486 214L394 224L447 264Z" fill="#9d9d9d" stroke="#9d9d9d"></path><path d="M570 291L550 272L516 278Z" fill="#171717" stroke="#171717"></path><path d="M516 278L550 272L527 224Z" fill="#222222" stroke="#222222"></path><path d="M395 360L423 361L408 296Z" fill="#3b3b3b" stroke="#3b3b3b"></path><path d="M408 296L423 361L451 344Z" fill="#636363" stroke="#636363"></path><path d="M451 344L476 395L488 356Z" fill="#222222" stroke="#222222"></path><path d="M488 356L512 354L466 295Z" fill="#8e8e8e" stroke="#8e8e8e"></path><path d="M512 354L526 349L516 278Z" fill="#555555" stroke="#555555"></path><path d="M527 196L472 173L486 214Z" fill="#555555" stroke="#555555"></path><path d="M486 214L472 173L394 224Z" fill="#171717" stroke="#171717"></path><path d="M565 186L527 196L527 224Z" fill="#7f7f7f" stroke="#7f7f7f"></path><path d="M527 224L527 196L486 214Z" fill="#2e2e2e" stroke="#2e2e2e"></path><path d="M334 314L395 360L408 296Z" fill="#636363" stroke="#636363"></path><path d="M526 349L570 291L516 278Z" fill="#3b3b3b" stroke="#3b3b3b"></path><path d="M597 226L565 186L527 224Z" fill="#8e8e8e" stroke="#8e8e8e"></path><path d="M417 392L476 395L423 361Z" fill="#171717" stroke="#171717"></path><path d="M423 361L476 395L451 344Z" fill="#717171" stroke="#717171"></path><path d="M488 356L528 385L512 354Z" fill="#717171" stroke="#717171"></path><path d="M512 354L528 385L526 349Z" fill="#2e2e2e" stroke="#2e2e2e"></path><path d="M394 224L348 228L380 250Z" fill="#3b3b3b" stroke="#3b3b3b"></path><path d="M380 250L334 314L408 296Z" fill="#717171" stroke="#717171"></path><path d="M369 143L348 228L394 224Z" fill="#9d9d9d" stroke="#9d9d9d"></path><path d="M395 360L417 392L423 361Z" fill="#7f7f7f" stroke="#7f7f7f"></path><path d="M506 406L528 385L488 356Z" fill="#222222" stroke="#222222"></path><path d="M526 349L588 308L570 291Z" fill="#636363" stroke="#636363"></path><path d="M606 326L588 308L526 349Z" fill="#555555" stroke="#555555"></path><path d="M595 239L527 224L550 272Z" fill="#3b3b3b" stroke="#3b3b3b"></path><path d="M321 283L334 314L380 250Z" fill="#636363" stroke="#636363"></path><path d="M395 360L352 412L417 392Z" fill="#2e2e2e" stroke="#2e2e2e"></path><path d="M476 395L506 406L488 356Z" fill="#484848" stroke="#484848"></path><path d="M474 453L506 406L476 395Z" fill="#555555" stroke="#555555"></path><path d="M595 239L550 272L570 291Z" fill="#2e2e2e" stroke="#2e2e2e"></path><path d="M527 196L536 82L472 173Z" fill="#3b3b3b" stroke="#3b3b3b"></path><path d="M630 276L595 239L570 291Z" fill="#636363" stroke="#636363"></path><path d="M348 228L321 283L380 250Z" fill="#8e8e8e" stroke="#8e8e8e"></path><path d="M607 204L597 226L630 276Z" fill="#7f7f7f" stroke="#7f7f7f"></path><path d="M595 239L597 226L527 224Z" fill="#8e8e8e" stroke="#8e8e8e"></path><path d="M281 354L344 374L334 314Z" fill="#2e2e2e" stroke="#2e2e2e"></path><path d="M334 314L344 374L395 360Z" fill="#9d9d9d" stroke="#9d9d9d"></path><path d="M348 228L309 270L321 283Z" fill="#171717" stroke="#171717"></path><path d="M321 283L294 313L334 314Z" fill="#9d9d9d" stroke="#9d9d9d"></path><path d="M528 385L606 326L526 349Z" fill="#3b3b3b" stroke="#3b3b3b"></path><path d="M588 308L630 276L570 291Z" fill="#484848" stroke="#484848"></path><path d="M607 436L606 326L528 385Z" fill="#717171" stroke="#717171"></path><path d="M450 103L422 123L472 173Z" fill="#2e2e2e" stroke="#2e2e2e"></path><path d="M472 173L422 123L394 224Z" fill="#222222" stroke="#222222"></path><path d="M348 228L279 241L309 270Z" fill="#636363" stroke="#636363"></path><path d="M385 455L429 434L417 392Z" fill="#3b3b3b" stroke="#3b3b3b"></path><path d="M417 392L429 434L476 395Z" fill="#8e8e8e" stroke="#8e8e8e"></path><path d="M422 123L369 143L394 224Z" fill="#484848" stroke="#484848"></path><path d="M630 276L597 226L595 239Z" fill="#8e8e8e" stroke="#8e8e8e"></path><path d="M597 226L607 204L565 186Z" fill="#2e2e2e" stroke="#2e2e2e"></path><path d="M536 82L450 103L472 173Z" fill="#636363" stroke="#636363"></path><path d="M606 326L630 276L588 308Z" fill="#717171" stroke="#717171"></path><path d="M309 270L294 313L321 283Z" fill="#636363" stroke="#636363"></path><path d="M369 143L310 192L348 228Z" fill="#484848" stroke="#484848"></path><path d="M309 270L266 274L294 313Z" fill="#8e8e8e" stroke="#8e8e8e"></path><path d="M278 370L352 412L344 374Z" fill="#717171" stroke="#717171"></path><path d="M344 374L352 412L395 360Z" fill="#8e8e8e" stroke="#8e8e8e"></path><path d="M536 82L527 196L565 186Z" fill="#2e2e2e" stroke="#2e2e2e"></path><path d="M422 123L419 92L369 143Z" fill="#222222" stroke="#222222"></path><path d="M434 540L474 453L429 434Z" fill="#3b3b3b" stroke="#3b3b3b"></path><path d="M429 434L474 453L476 395Z" fill="#555555" stroke="#555555"></path><path d="M506 406L558 435L528 385Z" fill="#9d9d9d" stroke="#9d9d9d"></path><path d="M310 192L279 241L348 228Z" fill="#484848" stroke="#484848"></path><path d="M528 454L558 435L506 406Z" fill="#2e2e2e" stroke="#2e2e2e"></path><path d="M606 326L663 388L630 276Z" fill="#717171" stroke="#717171"></path><path d="M474 453L528 454L506 406Z" fill="#7f7f7f" stroke="#7f7f7f"></path><path d="M450 103L419 92L422 123Z" fill="#7f7f7f" stroke="#7f7f7f"></path><path d="M369 143L308 126L310 192Z" fill="#555555" stroke="#555555"></path><path d="M352 412L385 455L417 392Z" fill="#555555" stroke="#555555"></path><path d="M474 453L529 498L528 454Z" fill="#9d9d9d" stroke="#9d9d9d"></path><path d="M419 92L346 120L369 143Z" fill="#222222" stroke="#222222"></path><path d="M310 192L282 186L279 241Z" fill="#3b3b3b" stroke="#3b3b3b"></path><path d="M279 241L266 274L309 270Z" fill="#171717" stroke="#171717"></path><path d="M294 313L281 354L334 314Z" fill="#8e8e8e" stroke="#8e8e8e"></path><path d="M234 320L281 354L294 313Z" fill="#484848" stroke="#484848"></path><path d="M352 412L332 465L385 455Z" fill="#8e8e8e" stroke="#8e8e8e"></path><path d="M308 126L282 186L310 192Z" fill="#2e2e2e" stroke="#2e2e2e"></path><path d="M279 241L218 250L266 274Z" fill="#7f7f7f" stroke="#7f7f7f"></path><path d="M601 107L594 126L625 123Z" fill="#2e2e2e" stroke="#2e2e2e"></path><path d="M607 204L594 126L565 186Z" fill="#3b3b3b" stroke="#3b3b3b"></path><path d="M450 103L424 70L419 92Z" fill="#3b3b3b" stroke="#3b3b3b"></path><path d="M216 354L278 370L281 354Z" fill="#2e2e2e" stroke="#2e2e2e"></path><path d="M281 354L278 370L344 374Z" fill="#8e8e8e" stroke="#8e8e8e"></path><path d="M561 87L536 82L565 186Z" fill="#636363" stroke="#636363"></path><path d="M476 66L424 70L450 103Z" fill="#3b3b3b" stroke="#3b3b3b"></path><path d="M419 92L364 46L346 120Z" fill="#2e2e2e" stroke="#2e2e2e"></path><path d="M536 82L476 66L450 103Z" fill="#2e2e2e" stroke="#2e2e2e"></path><path d="M292 108L308 126L311 83Z" fill="#2e2e2e" stroke="#2e2e2e"></path><path d="M346 120L308 126L369 143Z" fill="#3b3b3b" stroke="#3b3b3b"></path><path d="M594 126L561 87L565 186Z" fill="#717171" stroke="#717171"></path><path d="M457 0L424 70L476 66Z" fill="#7f7f7f" stroke="#7f7f7f"></path><path d="M563 499L607 436L558 435Z" fill="#555555" stroke="#555555"></path><path d="M558 435L607 436L528 385Z" fill="#9d9d9d" stroke="#9d9d9d"></path><path d="M625 123L594 126L607 204Z" fill="#484848" stroke="#484848"></path><path d="M594 126L601 107L561 87Z" fill="#555555" stroke="#555555"></path><path d="M607 436L642 408L606 326Z" fill="#8e8e8e" stroke="#8e8e8e"></path><path d="M664 169L625 123L607 204Z" fill="#555555" stroke="#555555"></path><path d="M664 169L607 204L677 196Z" fill="#9d9d9d" stroke="#9d9d9d"></path><path d="M264 450L332 465L352 412Z" fill="#222222" stroke="#222222"></path><path d="M511 540L529 498L474 453Z" fill="#7f7f7f" stroke="#7f7f7f"></path><path d="M677 196L607 204L630 276Z" fill="#484848" stroke="#484848"></path><path d="M216 263L234 320L266 274Z" fill="#2e2e2e" stroke="#2e2e2e"></path><path d="M266 274L234 320L294 313Z" fill="#555555" stroke="#555555"></path><path d="M278 370L260 396L352 412Z" fill="#9d9d9d" stroke="#9d9d9d"></path><path d="M642 408L663 388L606 326Z" fill="#636363" stroke="#636363"></path><path d="M729 260L677 196L630 276Z" fill="#9d9d9d" stroke="#9d9d9d"></path><path d="M434 540L429 434L385 455Z" fill="#3b3b3b" stroke="#3b3b3b"></path><path d="M528 454L563 499L558 435Z" fill="#8e8e8e" stroke="#8e8e8e"></path><path d="M216 354L260 396L278 370Z" fill="#3b3b3b" stroke="#3b3b3b"></path><path d="M642 408L649 423L663 388Z" fill="#717171" stroke="#717171"></path><path d="M607 436L649 423L642 408Z" fill="#171717" stroke="#171717"></path><path d="M634 472L649 423L607 436Z" fill="#484848" stroke="#484848"></path><path d="M311 83L308 126L346 120Z" fill="#7f7f7f" stroke="#7f7f7f"></path><path d="M308 126L243 116L282 186Z" fill="#171717" stroke="#171717"></path><path d="M282 186L218 250L279 241Z" fill="#7f7f7f" stroke="#7f7f7f"></path><path d="M204 175L218 250L282 186Z" fill="#8e8e8e" stroke="#8e8e8e"></path><path d="M529 498L563 499L528 454Z" fill="#484848" stroke="#484848"></path><path d="M364 46L311 83L346 120Z" fill="#222222" stroke="#222222"></path><path d="M264 450L315 474L332 465Z" fill="#636363" stroke="#636363"></path><path d="M332 465L336 496L385 455Z" fill="#636363" stroke="#636363"></path><path d="M218 250L216 263L266 274Z" fill="#2e2e2e" stroke="#2e2e2e"></path><path d="M664 169L673 151L625 123Z" fill="#484848" stroke="#484848"></path><path d="M621 55L561 87L601 107Z" fill="#3b3b3b" stroke="#3b3b3b"></path><path d="M677 196L673 151L664 169Z" fill="#7f7f7f" stroke="#7f7f7f"></path><path d="M424 70L364 46L419 92Z" fill="#8e8e8e" stroke="#8e8e8e"></path><path d="M385 27L364 46L424 70Z" fill="#717171" stroke="#717171"></path><path d="M315 474L336 496L332 465Z" fill="#8e8e8e" stroke="#8e8e8e"></path><path d="M529 498L511 540L563 499Z" fill="#555555" stroke="#555555"></path><path d="M196 351L215 349L234 320Z" fill="#222222" stroke="#222222"></path><path d="M234 320L216 354L281 354Z" fill="#484848" stroke="#484848"></path><path d="M260 396L264 450L352 412Z" fill="#222222" stroke="#222222"></path><path d="M215 349L216 354L234 320Z" fill="#3b3b3b" stroke="#3b3b3b"></path><path d="M697 397L663 388L649 423Z" fill="#8e8e8e" stroke="#8e8e8e"></path><path d="M697 397L694 386L663 388Z" fill="#3b3b3b" stroke="#3b3b3b"></path><path d="M663 388L732 308L630 276Z" fill="#555555" stroke="#555555"></path><path d="M712 148L706 140L673 151Z" fill="#7f7f7f" stroke="#7f7f7f"></path><path d="M563 499L634 472L607 436Z" fill="#555555" stroke="#555555"></path><path d="M535 22L476 66L536 82Z" fill="#484848" stroke="#484848"></path><path d="M408 0L385 27L424 70Z" fill="#484848" stroke="#484848"></path><path d="M306 0L263 40L311 83Z" fill="#717171" stroke="#717171"></path><path d="M195 419L264 450L260 396Z" fill="#555555" stroke="#555555"></path><path d="M311 540L336 550L336 496Z" fill="#717171" stroke="#717171"></path><path d="M386 540L434 540L385 455Z" fill="#555555" stroke="#555555"></path><path d="M716 415L697 397L649 423Z" fill="#222222" stroke="#222222"></path><path d="M732 308L729 260L630 276Z" fill="#717171" stroke="#717171"></path><path d="M621 55L535 22L561 87Z" fill="#9d9d9d" stroke="#9d9d9d"></path><path d="M561 87L535 22L536 82Z" fill="#171717" stroke="#171717"></path><path d="M621 55L601 107L625 123Z" fill="#171717" stroke="#171717"></path><path d="M434 540L511 540L474 453Z" fill="#2e2e2e" stroke="#2e2e2e"></path><path d="M563 499L591 540L634 472Z" fill="#171717" stroke="#171717"></path><path d="M732 308L663 388L694 386Z" fill="#8e8e8e" stroke="#8e8e8e"></path><path d="M216 263L190 279L234 320Z" fill="#7f7f7f" stroke="#7f7f7f"></path><path d="M215 349L196 351L216 354Z" fill="#555555" stroke="#555555"></path><path d="M190 273L190 279L216 263Z" fill="#2e2e2e" stroke="#2e2e2e"></path><path d="M190 273L216 263L218 250Z" fill="#717171" stroke="#717171"></path><path d="M263 40L243 116L292 108Z" fill="#9d9d9d" stroke="#9d9d9d"></path><path d="M292 108L243 116L308 126Z" fill="#717171" stroke="#717171"></path><path d="M263 40L292 108L311 83Z" fill="#7f7f7f" stroke="#7f7f7f"></path><path d="M148 195L190 273L218 250Z" fill="#3b3b3b" stroke="#3b3b3b"></path><path d="M741 400L732 308L694 386Z" fill="#636363" stroke="#636363"></path><path d="M377 540L386 540L385 455Z" fill="#9d9d9d" stroke="#9d9d9d"></path><path d="M377 540L385 455L336 496Z" fill="#8e8e8e" stroke="#8e8e8e"></path><path d="M243 116L225 138L282 186Z" fill="#484848" stroke="#484848"></path><path d="M643 48L621 55L668 68Z" fill="#717171" stroke="#717171"></path><path d="M190 279L196 351L234 320Z" fill="#555555" stroke="#555555"></path><path d="M216 354L195 419L260 396Z" fill="#555555" stroke="#555555"></path><path d="M336 550L377 540L336 496Z" fill="#9d9d9d" stroke="#9d9d9d"></path><path d="M225 138L204 175L282 186Z" fill="#484848" stroke="#484848"></path><path d="M487 0L457 0L476 66Z" fill="#8e8e8e" stroke="#8e8e8e"></path><path d="M706 140L684 112L673 151Z" fill="#3b3b3b" stroke="#3b3b3b"></path><path d="M673 151L684 112L625 123Z" fill="#636363" stroke="#636363"></path><path d="M506 0L487 0L476 66Z" fill="#222222" stroke="#222222"></path><path d="M506 0L476 66L535 22Z" fill="#3b3b3b" stroke="#3b3b3b"></path><path d="M748 217L734 222L759 257Z" fill="#484848" stroke="#484848"></path><path d="M729 260L734 222L677 196Z" fill="#2e2e2e" stroke="#2e2e2e"></path><path d="M512 0L506 0L535 22Z" fill="#8e8e8e" stroke="#8e8e8e"></path><path d="M712 148L673 151L677 196Z" fill="#171717" stroke="#171717"></path><path d="M543 0L512 0L535 22Z" fill="#717171" stroke="#717171"></path><path d="M159 349L191 358L196 351Z" fill="#171717" stroke="#171717"></path><path d="M196 351L191 358L216 354Z" fill="#171717" stroke="#171717"></path><path d="M457 0L408 0L424 70Z" fill="#171717" stroke="#171717"></path><path d="M385 27L356 0L364 46Z" fill="#222222" stroke="#222222"></path><path d="M734 222L712 148L677 196Z" fill="#9d9d9d" stroke="#9d9d9d"></path><path d="M408 0L377 2L385 27Z" fill="#717171" stroke="#717171"></path><path d="M614 12L543 0L535 22Z" fill="#717171" stroke="#717171"></path><path d="M727 461L716 415L649 423Z" fill="#8e8e8e" stroke="#8e8e8e"></path><path d="M697 397L741 400L694 386Z" fill="#2e2e2e" stroke="#2e2e2e"></path><path d="M156 179L190 171L180 103Z" fill="#636363" stroke="#636363"></path><path d="M225 138L190 171L204 175Z" fill="#717171" stroke="#717171"></path><path d="M204 175L148 195L218 250Z" fill="#7f7f7f" stroke="#7f7f7f"></path><path d="M668 68L621 55L625 123Z" fill="#171717" stroke="#171717"></path><path d="M621 55L614 12L535 22Z" fill="#3b3b3b" stroke="#3b3b3b"></path><path d="M668 68L625 123L684 112Z" fill="#7f7f7f" stroke="#7f7f7f"></path><path d="M668 68L684 112L694 50Z" fill="#636363" stroke="#636363"></path><path d="M734 222L748 217L712 148Z" fill="#484848" stroke="#484848"></path><path d="M755 260L734 222L729 260Z" fill="#8e8e8e" stroke="#8e8e8e"></path><path d="M755 260L729 260L759 299Z" fill="#7f7f7f" stroke="#7f7f7f"></path><path d="M480 587L578 546L511 540Z" fill="#555555" stroke="#555555"></path><path d="M511 540L578 546L563 499Z" fill="#171717" stroke="#171717"></path><path d="M634 472L727 461L649 423Z" fill="#3b3b3b" stroke="#3b3b3b"></path><path d="M480 587L511 540L434 540Z" fill="#2e2e2e" stroke="#2e2e2e"></path><path d="M480 587L434 540L386 540Z" fill="#636363" stroke="#636363"></path><path d="M578 546L591 540L563 499Z" fill="#3b3b3b" stroke="#3b3b3b"></path><path d="M694 50L684 112L742 83Z" fill="#555555" stroke="#555555"></path><path d="M759 257L755 260L766 269Z" fill="#636363" stroke="#636363"></path><path d="M408 0L356 0L377 2Z" fill="#636363" stroke="#636363"></path><path d="M377 2L356 0L385 27Z" fill="#171717" stroke="#171717"></path><path d="M759 299L729 260L732 308Z" fill="#222222" stroke="#222222"></path><path d="M755 260L759 257L734 222Z" fill="#555555" stroke="#555555"></path><path d="M789 363L759 299L732 308Z" fill="#636363" stroke="#636363"></path><path d="M311 540L315 474L289 540Z" fill="#484848" stroke="#484848"></path><path d="M311 540L336 496L315 474Z" fill="#717171" stroke="#717171"></path><path d="M377 540L336 550L386 540Z" fill="#8e8e8e" stroke="#8e8e8e"></path><path d="M191 358L195 419L216 354Z" fill="#8e8e8e" stroke="#8e8e8e"></path><path d="M289 540L315 474L280 540Z" fill="#171717" stroke="#171717"></path><path d="M759 299L766 269L755 260Z" fill="#717171" stroke="#717171"></path><path d="M759 257L771 242L748 217Z" fill="#717171" stroke="#717171"></path><path d="M643 48L614 12L621 55Z" fill="#555555" stroke="#555555"></path><path d="M663 7L614 12L643 48Z" fill="#555555" stroke="#555555"></path><path d="M745 447L741 400L716 415Z" fill="#7f7f7f" stroke="#7f7f7f"></path><path d="M716 415L741 400L697 397Z" fill="#717171" stroke="#717171"></path><path d="M759 299L783 263L766 269Z" fill="#7f7f7f" stroke="#7f7f7f"></path><path d="M306 0L311 83L364 46Z" fill="#7f7f7f" stroke="#7f7f7f"></path><path d="M243 116L180 103L225 138Z" fill="#3b3b3b" stroke="#3b3b3b"></path><path d="M190 279L159 349L196 351Z" fill="#9d9d9d" stroke="#9d9d9d"></path><path d="M191 358L159 349L195 419Z" fill="#9d9d9d" stroke="#9d9d9d"></path><path d="M134 289L159 349L190 279Z" fill="#717171" stroke="#717171"></path><path d="M134 289L190 279L190 273Z" fill="#484848" stroke="#484848"></path><path d="M336 550L480 587L386 540Z" fill="#9d9d9d" stroke="#9d9d9d"></path><path d="M783 263L771 242L759 257Z" fill="#8e8e8e" stroke="#8e8e8e"></path><path d="M748 217L756 127L712 148Z" fill="#2e2e2e" stroke="#2e2e2e"></path><path d="M742 83L684 112L706 140Z" fill="#717171" stroke="#717171"></path><path d="M189 447L199 448L195 419Z" fill="#636363" stroke="#636363"></path><path d="M195 419L199 448L264 450Z" fill="#2e2e2e" stroke="#2e2e2e"></path><path d="M311 540L253 584L336 550Z" fill="#3b3b3b" stroke="#3b3b3b"></path><path d="M336 550L253 584L480 587Z" fill="#8e8e8e" stroke="#8e8e8e"></path><path d="M280 540L315 474L264 450Z" fill="#222222" stroke="#222222"></path><path d="M622 571L635 540L591 540Z" fill="#636363" stroke="#636363"></path><path d="M591 540L635 540L634 472Z" fill="#3b3b3b" stroke="#3b3b3b"></path><path d="M622 571L591 540L578 546Z" fill="#3b3b3b" stroke="#3b3b3b"></path><path d="M356 0L306 0L364 46Z" fill="#3b3b3b" stroke="#3b3b3b"></path><path d="M199 448L280 540L264 450Z" fill="#7f7f7f" stroke="#7f7f7f"></path><path d="M289 540L253 584L311 540Z" fill="#7f7f7f" stroke="#7f7f7f"></path><path d="M180 103L190 171L225 138Z" fill="#3b3b3b" stroke="#3b3b3b"></path><path d="M190 171L148 195L204 175Z" fill="#9d9d9d" stroke="#9d9d9d"></path><path d="M622 571L643 540L635 540Z" fill="#7f7f7f" stroke="#7f7f7f"></path><path d="M635 540L654 536L634 472Z" fill="#8e8e8e" stroke="#8e8e8e"></path><path d="M120 475L189 447L195 419Z" fill="#7f7f7f" stroke="#7f7f7f"></path><path d="M200 565L253 584L280 540Z" fill="#3b3b3b" stroke="#3b3b3b"></path><path d="M306 0L298 0L263 40Z" fill="#8e8e8e" stroke="#8e8e8e"></path><path d="M817 322L783 263L759 299Z" fill="#484848" stroke="#484848"></path><path d="M766 269L783 263L759 257Z" fill="#3b3b3b" stroke="#3b3b3b"></path><path d="M643 540L654 536L635 540Z" fill="#2e2e2e" stroke="#2e2e2e"></path><path d="M156 179L148 195L190 171Z" fill="#171717" stroke="#171717"></path><path d="M654 536L727 461L634 472Z" fill="#171717" stroke="#171717"></path><path d="M741 400L789 363L732 308Z" fill="#222222" stroke="#222222"></path><path d="M756 127L706 140L712 148Z" fill="#8e8e8e" stroke="#8e8e8e"></path><path d="M668 68L694 50L643 48Z" fill="#171717" stroke="#171717"></path><path d="M756 127L799 182L777 128Z" fill="#3b3b3b" stroke="#3b3b3b"></path><path d="M148 195L134 289L190 273Z" fill="#2e2e2e" stroke="#2e2e2e"></path><path d="M77 370L120 475L195 419Z" fill="#9d9d9d" stroke="#9d9d9d"></path><path d="M179 90L180 103L243 116Z" fill="#9d9d9d" stroke="#9d9d9d"></path><path d="M156 179L122 169L148 195Z" fill="#222222" stroke="#222222"></path><path d="M179 90L243 116L203 48Z" fill="#171717" stroke="#171717"></path><path d="M756 127L748 217L799 182Z" fill="#2e2e2e" stroke="#2e2e2e"></path><path d="M789 442L745 447L811 490Z" fill="#9d9d9d" stroke="#9d9d9d"></path><path d="M727 461L745 447L716 415Z" fill="#222222" stroke="#222222"></path><path d="M480 587L622 571L578 546Z" fill="#171717" stroke="#171717"></path><path d="M643 540L622 571L654 536Z" fill="#7f7f7f" stroke="#7f7f7f"></path><path d="M775 522L745 447L727 461Z" fill="#171717" stroke="#171717"></path><path d="M112 331L127 321L134 289Z" fill="#171717" stroke="#171717"></path><path d="M134 289L127 321L159 349Z" fill="#636363" stroke="#636363"></path><path d="M679 0L663 7L694 50Z" fill="#717171" stroke="#717171"></path><path d="M694 50L663 7L643 48Z" fill="#7f7f7f" stroke="#7f7f7f"></path><path d="M614 12L679 0L543 0Z" fill="#555555" stroke="#555555"></path><path d="M203 48L243 116L263 40Z" fill="#484848" stroke="#484848"></path><path d="M115 145L122 169L156 179Z" fill="#222222" stroke="#222222"></path><path d="M789 442L789 363L741 400Z" fill="#8e8e8e" stroke="#8e8e8e"></path><path d="M824 403L791 362L789 363Z" fill="#3b3b3b" stroke="#3b3b3b"></path><path d="M789 363L791 362L759 299Z" fill="#555555" stroke="#555555"></path><path d="M756 127L742 83L706 140Z" fill="#717171" stroke="#717171"></path><path d="M215 0L203 48L263 40Z" fill="#2e2e2e" stroke="#2e2e2e"></path><path d="M298 0L248 0L263 40Z" fill="#8e8e8e" stroke="#8e8e8e"></path><path d="M799 182L748 217L806 201Z" fill="#717171" stroke="#717171"></path><path d="M756 127L750 76L742 83Z" fill="#222222" stroke="#222222"></path><path d="M748 217L771 242L806 201Z" fill="#484848" stroke="#484848"></path><path d="M806 201L771 242L783 263Z" fill="#636363" stroke="#636363"></path><path d="M795 109L750 76L756 127Z" fill="#484848" stroke="#484848"></path><path d="M742 83L751 46L694 50Z" fill="#2e2e2e" stroke="#2e2e2e"></path><path d="M703 0L679 0L694 50Z" fill="#9d9d9d" stroke="#9d9d9d"></path><path d="M663 7L679 0L614 12Z" fill="#555555" stroke="#555555"></path><path d="M98 250L112 331L134 289Z" fill="#9d9d9d" stroke="#9d9d9d"></path><path d="M127 321L112 331L159 349Z" fill="#171717" stroke="#171717"></path><path d="M832 197L853 213L848 206Z" fill="#222222" stroke="#222222"></path><path d="M115 145L180 103L140 71Z" fill="#9d9d9d" stroke="#9d9d9d"></path><path d="M115 145L156 179L180 103Z" fill="#8e8e8e" stroke="#8e8e8e"></path><path d="M148 195L98 250L134 289Z" fill="#7f7f7f" stroke="#7f7f7f"></path><path d="M861 369L817 322L791 362Z" fill="#636363" stroke="#636363"></path><path d="M791 362L817 322L759 299Z" fill="#8e8e8e" stroke="#8e8e8e"></path><path d="M83 235L98 250L148 195Z" fill="#8e8e8e" stroke="#8e8e8e"></path><path d="M740 540L727 461L654 536Z" fill="#3b3b3b" stroke="#3b3b3b"></path><path d="M745 447L789 442L741 400Z" fill="#7f7f7f" stroke="#7f7f7f"></path><path d="M725 0L703 0L694 50Z" fill="#555555" stroke="#555555"></path><path d="M140 71L180 103L179 90Z" fill="#9d9d9d" stroke="#9d9d9d"></path><path d="M122 169L83 235L148 195Z" fill="#7f7f7f" stroke="#7f7f7f"></path><path d="M248 0L215 0L263 40Z" fill="#636363" stroke="#636363"></path><path d="M203 48L140 71L179 90Z" fill="#8e8e8e" stroke="#8e8e8e"></path><path d="M173 530L280 540L199 448Z" fill="#2e2e2e" stroke="#2e2e2e"></path><path d="M280 540L253 584L289 540Z" fill="#8e8e8e" stroke="#8e8e8e"></path><path d="M173 530L199 448L189 447Z" fill="#3b3b3b" stroke="#3b3b3b"></path><path d="M823 54L751 46L750 76Z" fill="#717171" stroke="#717171"></path><path d="M750 76L751 46L742 83Z" fill="#555555" stroke="#555555"></path><path d="M795 109L756 127L777 128Z" fill="#484848" stroke="#484848"></path><path d="M795 109L777 128L827 110Z" fill="#484848" stroke="#484848"></path><path d="M827 110L777 128L799 182Z" fill="#636363" stroke="#636363"></path><path d="M832 197L806 201L853 213Z" fill="#171717" stroke="#171717"></path><path d="M806 201L832 197L799 182Z" fill="#222222" stroke="#222222"></path><path d="M66 227L83 235L122 169Z" fill="#7f7f7f" stroke="#7f7f7f"></path><path d="M67 335L77 370L112 331Z" fill="#484848" stroke="#484848"></path><path d="M125 40L140 71L203 48Z" fill="#2e2e2e" stroke="#2e2e2e"></path><path d="M42 202L66 227L122 169Z" fill="#717171" stroke="#717171"></path><path d="M755 0L725 0L751 46Z" fill="#717171" stroke="#717171"></path><path d="M751 46L725 0L694 50Z" fill="#8e8e8e" stroke="#8e8e8e"></path><path d="M120 475L173 530L189 447Z" fill="#8e8e8e" stroke="#8e8e8e"></path><path d="M622 571L740 540L654 536Z" fill="#9d9d9d" stroke="#9d9d9d"></path><path d="M877 446L824 403L789 442Z" fill="#484848" stroke="#484848"></path><path d="M789 442L824 403L789 363Z" fill="#484848" stroke="#484848"></path><path d="M853 213L806 201L783 263Z" fill="#717171" stroke="#717171"></path><path d="M173 530L200 565L280 540Z" fill="#222222" stroke="#222222"></path><path d="M832 197L827 110L799 182Z" fill="#3b3b3b" stroke="#3b3b3b"></path><path d="M853 213L783 263L894 290Z" fill="#171717" stroke="#171717"></path><path d="M77 370L195 419L159 349Z" fill="#7f7f7f" stroke="#7f7f7f"></path><path d="M173 530L152 540L200 565Z" fill="#9d9d9d" stroke="#9d9d9d"></path><path d="M77 370L159 349L112 331Z" fill="#636363" stroke="#636363"></path><path d="M67 335L112 331L46 313Z" fill="#3b3b3b" stroke="#3b3b3b"></path><path d="M894 290L783 263L817 322Z" fill="#222222" stroke="#222222"></path><path d="M848 206L827 110L832 197Z" fill="#9d9d9d" stroke="#9d9d9d"></path><path d="M42 202L122 169L115 145Z" fill="#3b3b3b" stroke="#3b3b3b"></path><path d="M46 313L112 331L98 250Z" fill="#636363" stroke="#636363"></path><path d="M46 313L98 250L83 235Z" fill="#636363" stroke="#636363"></path><path d="M740 540L775 522L727 461Z" fill="#9d9d9d" stroke="#9d9d9d"></path><path d="M622 571L761 543L740 540Z" fill="#717171" stroke="#717171"></path><path d="M740 540L761 543L775 522Z" fill="#3b3b3b" stroke="#3b3b3b"></path><path d="M927 88L827 110L848 206Z" fill="#171717" stroke="#171717"></path><path d="M795 109L823 54L750 76Z" fill="#555555" stroke="#555555"></path><path d="M812 0L755 0L751 46Z" fill="#222222" stroke="#222222"></path><path d="M120 475L152 540L173 530Z" fill="#484848" stroke="#484848"></path><path d="M804 540L811 490L775 522Z" fill="#8e8e8e" stroke="#8e8e8e"></path><path d="M775 522L811 490L745 447Z" fill="#3b3b3b" stroke="#3b3b3b"></path><path d="M824 403L861 369L791 362Z" fill="#2e2e2e" stroke="#2e2e2e"></path><path d="M887 429L861 369L824 403Z" fill="#9d9d9d" stroke="#9d9d9d"></path><path d="M215 0L125 40L203 48Z" fill="#717171" stroke="#717171"></path><path d="M140 71L69 98L115 145Z" fill="#555555" stroke="#555555"></path><path d="M46 313L51 344L67 335Z" fill="#717171" stroke="#717171"></path><path d="M67 335L51 344L77 370Z" fill="#717171" stroke="#717171"></path><path d="M98 540L102 540L120 475Z" fill="#555555" stroke="#555555"></path><path d="M120 475L102 540L152 540Z" fill="#2e2e2e" stroke="#2e2e2e"></path><path d="M66 227L46 313L83 235Z" fill="#171717" stroke="#171717"></path><path d="M927 88L827 78L827 110Z" fill="#555555" stroke="#555555"></path><path d="M827 110L827 78L795 109Z" fill="#171717" stroke="#171717"></path><path d="M11 151L42 202L115 145Z" fill="#2e2e2e" stroke="#2e2e2e"></path><path d="M0 224L19 314L46 313Z" fill="#555555" stroke="#555555"></path><path d="M827 78L823 54L795 109Z" fill="#484848" stroke="#484848"></path><path d="M927 88L823 54L827 78Z" fill="#484848" stroke="#484848"></path><path d="M119 0L116 24L125 40Z" fill="#2e2e2e" stroke="#2e2e2e"></path><path d="M70 89L69 98L140 71Z" fill="#717171" stroke="#717171"></path><path d="M70 89L140 71L125 40Z" fill="#484848" stroke="#484848"></path><path d="M761 543L804 540L775 522Z" fill="#717171" stroke="#717171"></path><path d="M811 490L877 446L789 442Z" fill="#7f7f7f" stroke="#7f7f7f"></path><path d="M815 540L804 540L761 543Z" fill="#484848" stroke="#484848"></path><path d="M905 393L894 290L861 369Z" fill="#9d9d9d" stroke="#9d9d9d"></path><path d="M861 369L894 290L817 322Z" fill="#222222" stroke="#222222"></path><path d="M853 213L960 177L848 206Z" fill="#717171" stroke="#717171"></path><path d="M116 24L70 89L125 40Z" fill="#484848" stroke="#484848"></path><path d="M0 211L0 224L42 202Z" fill="#3b3b3b" stroke="#3b3b3b"></path><path d="M215 0L119 0L125 40Z" fill="#8e8e8e" stroke="#8e8e8e"></path><path d="M116 24L91 0L70 89Z" fill="#484848" stroke="#484848"></path><path d="M622 571L815 540L761 543Z" fill="#484848" stroke="#484848"></path><path d="M804 540L815 540L811 490Z" fill="#2e2e2e" stroke="#2e2e2e"></path><path d="M0 224L46 313L66 227Z" fill="#717171" stroke="#717171"></path><path d="M46 313L19 314L51 344Z" fill="#2e2e2e" stroke="#2e2e2e"></path><path d="M98 540L120 475L89 540Z" fill="#9d9d9d" stroke="#9d9d9d"></path><path d="M894 290L904 242L853 213Z" fill="#7f7f7f" stroke="#7f7f7f"></path><path d="M120 475L77 370L30 410Z" fill="#222222" stroke="#222222"></path><path d="M152 540L102 540L200 565Z" fill="#555555" stroke="#555555"></path><path d="M200 565L58 547L253 584Z" fill="#3b3b3b" stroke="#3b3b3b"></path><path d="M882 0L812 0L823 54Z" fill="#171717" stroke="#171717"></path><path d="M823 54L812 0L751 46Z" fill="#9d9d9d" stroke="#9d9d9d"></path><path d="M30 410L77 370L51 344Z" fill="#717171" stroke="#717171"></path><path d="M102 540L58 547L200 565Z" fill="#9d9d9d" stroke="#9d9d9d"></path><path d="M861 509L877 446L811 490Z" fill="#484848" stroke="#484848"></path><path d="M894 290L913 259L904 242Z" fill="#484848" stroke="#484848"></path><path d="M14 402L30 410L51 344Z" fill="#484848" stroke="#484848"></path><path d="M877 446L887 429L824 403Z" fill="#717171" stroke="#717171"></path><path d="M921 254L913 259L944 256Z" fill="#484848" stroke="#484848"></path><path d="M904 242L939 224L853 213Z" fill="#484848" stroke="#484848"></path><path d="M58 547L89 540L120 475Z" fill="#222222" stroke="#222222"></path><path d="M98 540L58 547L102 540Z" fill="#171717" stroke="#171717"></path><path d="M887 429L905 393L861 369Z" fill="#171717" stroke="#171717"></path><path d="M944 256L913 259L960 308Z" fill="#2e2e2e" stroke="#2e2e2e"></path><path d="M913 259L921 254L904 242Z" fill="#636363" stroke="#636363"></path><path d="M119 0L91 0L116 24Z" fill="#2e2e2e" stroke="#2e2e2e"></path><path d="M0 211L42 202L0 206Z" fill="#2e2e2e" stroke="#2e2e2e"></path><path d="M815 540L861 509L811 490Z" fill="#717171" stroke="#717171"></path><path d="M981 441L905 393L887 429Z" fill="#555555" stroke="#555555"></path><path d="M960 387L960 364L905 393Z" fill="#222222" stroke="#222222"></path><path d="M42 202L0 173L0 206Z" fill="#171717" stroke="#171717"></path><path d="M42 202L0 224L66 227Z" fill="#555555" stroke="#555555"></path><path d="M0 377L14 402L51 344Z" fill="#9d9d9d" stroke="#9d9d9d"></path><path d="M0 377L51 344L19 314Z" fill="#8e8e8e" stroke="#8e8e8e"></path><path d="M0 491L58 547L120 475Z" fill="#222222" stroke="#222222"></path><path d="M115 145L69 98L11 151Z" fill="#717171" stroke="#717171"></path><path d="M11 151L69 98L13 134Z" fill="#717171" stroke="#717171"></path><path d="M13 134L69 98L0 93Z" fill="#171717" stroke="#171717"></path><path d="M0 137L13 134L0 93Z" fill="#636363" stroke="#636363"></path><path d="M11 151L0 173L42 202Z" fill="#484848" stroke="#484848"></path><path d="M-41 317L0 377L19 314Z" fill="#484848" stroke="#484848"></path><path d="M0 491L120 475L30 410Z" fill="#8e8e8e" stroke="#8e8e8e"></path><path d="M0 377L0 379L14 402Z" fill="#484848" stroke="#484848"></path><path d="M0 137L0 173L11 151Z" fill="#717171" stroke="#717171"></path><path d="M622 571L856 540L815 540Z" fill="#717171" stroke="#717171"></path><path d="M815 540L856 540L861 509Z" fill="#717171" stroke="#717171"></path><path d="M861 509L951 503L877 446Z" fill="#222222" stroke="#222222"></path><path d="M0 379L0 395L14 402Z" fill="#3b3b3b" stroke="#3b3b3b"></path><path d="M0 93L69 98L70 89Z" fill="#9d9d9d" stroke="#9d9d9d"></path><path d="M119 0L90 -28L91 0Z" fill="#717171" stroke="#717171"></path><path d="M215 0L90 -28L119 0Z" fill="#2e2e2e" stroke="#2e2e2e"></path><path d="M248 0L90 -28L215 0Z" fill="#717171" stroke="#717171"></path><path d="M298 0L90 -28L248 0Z" fill="#484848" stroke="#484848"></path><path d="M306 0L90 -28L298 0Z" fill="#717171" stroke="#717171"></path><path d="M356 0L90 -28L306 0Z" fill="#3b3b3b" stroke="#3b3b3b"></path><path d="M408 0L90 -28L356 0Z" fill="#8e8e8e" stroke="#8e8e8e"></path><path d="M457 0L90 -28L408 0Z" fill="#2e2e2e" stroke="#2e2e2e"></path><path d="M487 0L90 -28L457 0Z" fill="#171717" stroke="#171717"></path><path d="M506 0L90 -28L487 0Z" fill="#484848" stroke="#484848"></path><path d="M512 0L90 -28L506 0Z" fill="#717171" stroke="#717171"></path><path d="M543 0L90 -28L512 0Z" fill="#717171" stroke="#717171"></path><path d="M679 0L90 -28L543 0Z" fill="#717171" stroke="#717171"></path><path d="M960 -7L90 -28L679 0Z" fill="#7f7f7f" stroke="#7f7f7f"></path><path d="M960 -7L679 0L703 0Z" fill="#9d9d9d" stroke="#9d9d9d"></path><path d="M960 -7L703 0L725 0Z" fill="#222222" stroke="#222222"></path><path d="M960 -7L725 0L755 0Z" fill="#484848" stroke="#484848"></path><path d="M944 256L939 224L921 254Z" fill="#8e8e8e" stroke="#8e8e8e"></path><path d="M921 254L939 224L904 242Z" fill="#636363" stroke="#636363"></path><path d="M13 134L0 137L11 151Z" fill="#8e8e8e" stroke="#8e8e8e"></path><path d="M0 93L70 89L26 28Z" fill="#717171" stroke="#717171"></path><path d="M960 308L913 259L894 290Z" fill="#222222" stroke="#222222"></path><path d="M0 491L30 410L14 402Z" fill="#484848" stroke="#484848"></path><path d="M89 540L58 547L98 540Z" fill="#3b3b3b" stroke="#3b3b3b"></path><path d="M622 571L876 540L856 540Z" fill="#171717" stroke="#171717"></path><path d="M856 540L876 540L861 509Z" fill="#484848" stroke="#484848"></path><path d="M960 333L960 308L894 290Z" fill="#9d9d9d" stroke="#9d9d9d"></path><path d="M26 28L70 89L91 0Z" fill="#484848" stroke="#484848"></path><path d="M971 260L956 217L944 256Z" fill="#171717" stroke="#171717"></path><path d="M944 256L956 217L939 224Z" fill="#222222" stroke="#222222"></path><path d="M960 177L927 88L848 206Z" fill="#9d9d9d" stroke="#9d9d9d"></path><path d="M960 333L894 290L905 393Z" fill="#2e2e2e" stroke="#2e2e2e"></path><path d="M90 -28L26 28L91 0Z" fill="#171717" stroke="#171717"></path><path d="M960 364L960 333L905 393Z" fill="#636363" stroke="#636363"></path><path d="M960 177L853 213L939 224Z" fill="#3b3b3b" stroke="#3b3b3b"></path><path d="M0 379L-49 355L0 395Z" fill="#717171" stroke="#717171"></path><path d="M0 395L0 491L14 402Z" fill="#8e8e8e" stroke="#8e8e8e"></path><path d="M0 377L-49 355L0 379Z" fill="#222222" stroke="#222222"></path><path d="M0 224L-41 317L19 314Z" fill="#8e8e8e" stroke="#8e8e8e"></path><path d="M0 211L-41 317L0 224Z" fill="#222222" stroke="#222222"></path><path d="M0 206L-41 317L0 211Z" fill="#636363" stroke="#636363"></path><path d="M0 173L-41 317L0 206Z" fill="#636363" stroke="#636363"></path><path d="M0 137L-41 317L0 173Z" fill="#222222" stroke="#222222"></path><path d="M0 93L-41 317L0 137Z" fill="#171717" stroke="#171717"></path><path d="M956 217L960 206L939 224Z" fill="#636363" stroke="#636363"></path><path d="M971 260L960 208L956 217Z" fill="#2e2e2e" stroke="#2e2e2e"></path><path d="M927 88L882 0L823 54Z" fill="#3b3b3b" stroke="#3b3b3b"></path><path d="M812 0L960 -7L755 0Z" fill="#3b3b3b" stroke="#3b3b3b"></path><path d="M960 208L960 206L956 217Z" fill="#717171" stroke="#717171"></path><path d="M960 387L905 393L981 441Z" fill="#717171" stroke="#717171"></path><path d="M-49 355L0 491L0 395Z" fill="#3b3b3b" stroke="#3b3b3b"></path><path d="M960 206L960 177L939 224Z" fill="#222222" stroke="#222222"></path><path d="M927 88L889 0L882 0Z" fill="#171717" stroke="#171717"></path><path d="M882 0L960 -7L812 0Z" fill="#8e8e8e" stroke="#8e8e8e"></path><path d="M978 347L971 260L960 308Z" fill="#3b3b3b" stroke="#3b3b3b"></path><path d="M960 308L971 260L944 256Z" fill="#555555" stroke="#555555"></path><path d="M960 208L971 260L960 206Z" fill="#222222" stroke="#222222"></path><path d="M960 206L971 260L960 177Z" fill="#717171" stroke="#717171"></path><path d="M978 347L960 308L960 333Z" fill="#9d9d9d" stroke="#9d9d9d"></path><path d="M960 495L887 429L877 446Z" fill="#3b3b3b" stroke="#3b3b3b"></path><path d="M960 364L978 347L960 333Z" fill="#717171" stroke="#717171"></path><path d="M0 -6L-49 355L-41 317Z" fill="#7f7f7f" stroke="#7f7f7f"></path><path d="M-41 317L-49 355L0 377Z" fill="#9d9d9d" stroke="#9d9d9d"></path><path d="M960 387L978 347L960 364Z" fill="#2e2e2e" stroke="#2e2e2e"></path><path d="M-49 355L0 540L0 491Z" fill="#555555" stroke="#555555"></path><path d="M0 491L0 540L58 547Z" fill="#9d9d9d" stroke="#9d9d9d"></path><path d="M58 547L0 540L253 584Z" fill="#222222" stroke="#222222"></path><path d="M960 177L940 40L927 88Z" fill="#222222" stroke="#222222"></path><path d="M927 88L940 40L889 0Z" fill="#555555" stroke="#555555"></path><path d="M26 28L0 0L0 93Z" fill="#3b3b3b" stroke="#3b3b3b"></path><path d="M0 93L0 0L-41 317Z" fill="#222222" stroke="#222222"></path><path d="M0 -6L0 0L26 28Z" fill="#2e2e2e" stroke="#2e2e2e"></path><path d="M876 540L951 503L861 509Z" fill="#9d9d9d" stroke="#9d9d9d"></path><path d="M960 387L981 441L978 347Z" fill="#2e2e2e" stroke="#2e2e2e"></path><path d="M90 -28L0 -6L26 28Z" fill="#7f7f7f" stroke="#7f7f7f"></path><path d="M0 0L0 -6L-41 317Z" fill="#7f7f7f" stroke="#7f7f7f"></path><path d="M951 503L960 495L877 446Z" fill="#3b3b3b" stroke="#3b3b3b"></path><path d="M960 495L981 441L887 429Z" fill="#555555" stroke="#555555"></path><path d="M951 503L960 509L960 495Z" fill="#8e8e8e" stroke="#8e8e8e"></path><path d="M960 495L960 509L981 441Z" fill="#2e2e2e" stroke="#2e2e2e"></path><path d="M960 540L960 509L951 503Z" fill="#3b3b3b" stroke="#3b3b3b"></path><path d="M876 540L960 540L951 503Z" fill="#9d9d9d" stroke="#9d9d9d"></path><path d="M960 509L960 540L981 441Z" fill="#484848" stroke="#484848"></path><path d="M622 571L960 540L876 540Z" fill="#636363" stroke="#636363"></path><path d="M480 587L960 540L622 571Z" fill="#171717" stroke="#171717"></path><path d="M940 40L960 2L889 0Z" fill="#555555" stroke="#555555"></path><path d="M889 0L960 -7L882 0Z" fill="#3b3b3b" stroke="#3b3b3b"></path><path d="M960 177L960 2L940 40Z" fill="#7f7f7f" stroke="#7f7f7f"></path><path d="M971 260L960 2L960 177Z" fill="#222222" stroke="#222222"></path><path d="M960 0L960 2L971 260Z" fill="#2e2e2e" stroke="#2e2e2e"></path><path d="M960 -7L960 0L971 260Z" fill="#555555" stroke="#555555"></path><path d="M960 2L960 0L889 0Z" fill="#636363" stroke="#636363"></path><path d="M978 347L960 -7L971 260Z" fill="#2e2e2e" stroke="#2e2e2e"></path><path d="M960 0L960 -7L889 0Z" fill="#171717" stroke="#171717"></path></g></svg>